# xmcd
#
# Track frame offsets:
#	150
#	3024
#	23182
#	42864
#	68370
#	89657
#	112707
#	128719
#	155711
#	174295
#	193494
#	214037
#
# Disc length: 3128 seconds
#
# Revision: 1
# Processed by: cddbd v1.5.2PL0 Copyright (c) Steve Scherf et al.
# Submitted via: audiograbber 1.83.01
#
DISCID=930c360c
DTITLE=Sue Ann feat. Jesse Johnson - Blues In My Sunshine
DYEAR=2010
DGENRE=Blues
TTITLE0=Juke Joint Intro
TTITLE1=Big Boss Lady
TTITLE2=Who's Fooling Who
TTITLE3=It's All The Same
TTITLE4=Hold Me Tonight
TTITLE5=Can't Nobody Bring Me Down
TTITLE6=Dance My Blues Away
TTITLE7=Keep It Nice and Slow
TTITLE8=Pretty Brown Eyed Man
TTITLE9=Blues In My Sunshine
TTITLE10=Bob "Sticks" Carwell
TTITLE11=Please Let Me Go
EXTD=
EXTT0=
EXTT1=
EXTT2=
EXTT3=
EXTT4=
EXTT5=
EXTT6=
EXTT7=
EXTT8=
EXTT9=
EXTT10=
EXTT11=
PLAYORDER=
